<?xml version="1.0" encoding="UTF-8" standalone="no"?>
<!-- Created with Inkscape (http://www.inkscape.org/) -->
<svg height="48" width="48" xmlns="http://www.w3.org/2000/svg" xmlns:xlink="http://www.w3.org/1999/xlink">
  <defs>
    <radialGradient id="radialGradient6719" cx="605.71429" cy="486.64789" gradientTransform="matrix(-2.774389 0 0 1.969706 112.7623 -872.8854)" gradientUnits="userSpaceOnUse" r="117.14286" xlink:href="#linearGradient5060"/>
    <linearGradient id="linearGradient5060">
      <stop offset="0"/>
      <stop offset="1" stop-opacity="0"/>
    </linearGradient>
    <radialGradient id="radialGradient6717" cx="605.71429" cy="486.64789" gradientTransform="matrix(2.774389 0 0 1.969706 -1891.633 -872.8854)" gradientUnits="userSpaceOnUse" r="117.14286" xlink:href="#linearGradient5060"/>
    <linearGradient id="linearGradient6715" gradientTransform="matrix(2.774389 0 0 1.969706 -1892.179 -872.8854)" gradientUnits="userSpaceOnUse" x1="302.85715" x2="302.85715" y1="366.64789" y2="609.50507">
      <stop offset="0" stop-opacity="0"/>
      <stop offset=".5"/>
      <stop offset="1" stop-opacity="0"/>
    </linearGradient>
    <radialGradient id="radialGradient1366" cx="24.44568940002" cy="35.87816008386" gradientUnits="userSpaceOnUse" r="40.9604599858">
      <stop offset="0" stop-color="#fff"/>
      <stop offset="1" stop-color="#dcdcdc"/>
    </radialGradient>
  </defs>
  <g>
    <g transform="matrix(.02243788 0 0 .02086758 44.06795 40.547)">
      <rect fill="url(#linearGradient6715)" height="478.35718" opacity=".402062" width="1339.6335" x="-1559.2523" y="-150.69685"/>
      <path d="m-219.61876-150.68038v478.33079c142.874166.90045 345.40022-107.16966 345.40014-239.196175 0-132.026537-159.436816-239.134595-345.40014-239.134615z" fill="url(#radialGradient6717)" opacity=".402062"/>
      <path d="m-1559.2523-150.68038v478.33079c-142.8742.90045-345.4002-107.16966-345.4002-239.196175 0-132.026537 159.4368-239.134595 345.4002-239.134615z" fill="url(#radialGradient6719)" opacity=".402062"/>
    </g>
    <rect fill="url(#radialGradient1366)" fill-rule="evenodd" height="40.061924" rx="5.454824" stroke="#9b9b9b" stroke-linejoin="bevel" stroke-miterlimit="10" width="40.061924" x="4.414728" y="3.523345"/>
    <rect fill="none" height="37.696587" rx="4.242639" stroke="#fff" stroke-linejoin="bevel" stroke-miterlimit="10" width="37.696587" x="5.597389" y="4.706007"/>
    <g fill="#2e3436" transform="matrix(1.0877527 0 0 1.0546916 5.824495 11.835925)">
      <path d="m24.337778 3v.5058593c-.746688.1185075-1.311874.3281429-1.695556.6289059-.549649.446632-1.037056 1.130225-1.462222 2.050782l-8.078112 15.7773428h-.575555l-7.1818885-15.9824208c-.4044477-.820297-.6896327-1.321598-.8555557-1.503907-.2592617-.282534-.5807428-.501284-.9644444-.65625-.3733348-.164044-.8814824-.268862-1.5244445-.3144529v-.5058593h8.6177781v.5058593c-.9748232.0820492-1.6074151.2278829-1.8977781.4374999-.290377.209653-.435562.478533-.4355554.806641-.0000066.455745.2385117 1.166682.7155555 2.132812l4.646333 10.8691408 5.698112-10.7324218c.487388-1.057276.731092-1.790999.731111-2.201172-.000019-.264306-.150388-.514957-.451111-.751953-.300759-.246076-.808907-.419253-1.524445-.5195312-.051868-.0090966-.140016-.0227685-.264444-.0410157v-.5058593z"/>
      <path d="m32.337778 3v.5058593c-.746688.1185075-1.311874.3281429-1.695556.6289059-.549649.446632-1.037056 1.130225-1.462222 2.050782l-7.357778 15.7773428h-.575555l-7.902222-15.9824208c-.404448-.820297-.689633-1.321598-.855556-1.503907-.259262-.282534-.580743-.501284-.964445-.65625-.373334-.164044-.881482-.268862-1.524444-.3144529v-.5058593h8.617778v.5058593c-.974823.0820492-1.607415.2278829-1.897778.4374999-.290377.209653-.435562.478533-.435555.806641-.000007.455745.238511 1.166682.715555 2.132812l5.366667 10.8691408 4.977778-10.7324218c.487388-1.057276.731092-1.790999.731111-2.201172-.000019-.264306-.150388-.514957-.451111-.751953-.300759-.246076-.808907-.419253-1.524445-.5195312-.051868-.0090966-.140016-.0227685-.264444-.0410157v-.5058593z"/>
    </g>
  </g>
</svg>
